{
	"asset":{
		"generator":"Khronos glTF Blender I/O v4.1.63",
		"version":"2.0"
	},
	"scene":0,
	"scenes":[
		{
			"name":"Scene",
			"nodes":[
				0
			]
		}
	],
	"nodes":[
		{
			"mesh":0,
			"name":"Landscape.003",
			"translation":[
				0.05941486358642578,
				0,
				0
			]
		}
	],
	"materials":[
		{
			"doubleSided":true,
			"name":"Material.006",
			"pbrMetallicRoughness":{
				"metallicFactor":0,
				"roughnessFactor":0.5
			}
		}
	],
	"meshes":[
		{
			"name":"Landscape.003",
			"primitives":[
				{
					"attributes":{
						"POSITION":0,
						"NORMAL":1,
						"TEXCOORD_0":2
					},
					"indices":3,
					"material":0
				}
			]
		}
	],
	"accessors":[
		{
			"bufferView":0,
			"componentType":5126,
			"count":250000,
			"max":[
				5,
				0.5670838356018066,
				2.5
			],
			"min":[
				-5,
				0,
				-2.5
			],
			"type":"VEC3"
		},
		{
			"bufferView":1,
			"componentType":5126,
			"count":250000,
			"type":"VEC3"
		},
		{
			"bufferView":2,
			"componentType":5126,
			"count":250000,
			"type":"VEC2"
		},
		{
			"bufferView":3,
			"componentType":5125,
			"count":1494006,
			"type":"SCALAR"
		}
	],
	"bufferViews":[
		{
			"buffer":0,
			"byteLength":3000000,
			"byteOffset":0,
			"target":34962
		},
		{
			"buffer":0,
			"byteLength":3000000,
			"byteOffset":3000000,
			"target":34962
		},
		{
			"buffer":0,
			"byteLength":2000000,
			"byteOffset":6000000,
			"target":34962
		},
		{
			"buffer":0,
			"byteLength":5976024,
			"byteOffset":8000000,
			"target":34963
		}
	],
	"buffers":[
		{
			"byteLength":13976024,
			"uri":"winnie_the_poeh.bin"
		}
	]
}
